<svg viewBox="0 0 200 236" xmlns="http://www.w3.org/2000/svg" role="img" aria-label="Draft Day GM">
  <defs>
    <linearGradient id="shield-fill" x1="0%" y1="0%" x2="0%" y2="100%">
      <stop offset="0%" stop-color="#1e1b4b"/>
      <stop offset="100%" stop-color="#0f172a"/>
    </linearGradient>
    <linearGradient id="gold" x1="0%" y1="0%" x2="100%" y2="100%">
      <stop offset="0%" stop-color="#fde68a"/>
      <stop offset="45%" stop-color="#f59e0b"/>
      <stop offset="100%" stop-color="#b45309"/>
    </linearGradient>
    <linearGradient id="chrome" x1="0%" y1="0%" x2="100%" y2="100%">
      <stop offset="0%" stop-color="#f8fafc"/>
      <stop offset="45%" stop-color="#cbd5e1"/>
      <stop offset="100%" stop-color="#64748b"/>
    </linearGradient>
    <linearGradient id="ball" x1="20%" y1="15%" x2="80%" y2="85%">
      <stop offset="0%" stop-color="#f8fafc"/>
      <stop offset="55%" stop-color="#94a3b8"/>
      <stop offset="100%" stop-color="#475569"/>
    </linearGradient>
    <filter id="glow" x="-30%" y="-30%" width="160%" height="160%">
      <feDropShadow dx="0" dy="0" stdDeviation="5" flood-color="#a855f7" flood-opacity="0.75"/>
      <feDropShadow dx="0" dy="8" stdDeviation="10" flood-color="#7c3aed" flood-opacity="0.35"/>
    </filter>
  </defs>
  <g filter="url(#glow)">
    <path d="M100 18 L168 42 V112 C168 156 142 190 100 214 C58 190 32 156 32 112 V42 Z" fill="url(#shield-fill)" stroke="#a855f7" stroke-width="4"/>
    <path d="M100 24 L160 45 V110 C160 149 137 179 100 201 C63 179 40 149 40 110 V45 Z" fill="none" stroke="url(#gold)" stroke-width="3"/>
  </g>
  <circle cx="100" cy="52" r="22" fill="url(#ball)" stroke="#334155" stroke-width="1.5"/>
  <path d="M82 52 C88 42 112 42 118 52 C112 62 88 62 82 52Z" fill="none" stroke="#1e293b" stroke-width="2"/>
  <path d="M100 34 C108 40 108 64 100 70 C92 64 92 40 100 34Z" fill="none" stroke="#1e293b" stroke-width="2"/>
  <path d="M78 52 H122" stroke="#1e293b" stroke-width="2" stroke-linecap="round"/>
  <text x="100" y="128" text-anchor="middle" font-family="Inter, system-ui, sans-serif" font-size="54" font-weight="900" fill="url(#chrome)" stroke="#92400e" stroke-width="1.2" paint-order="stroke fill">GM</text>
  <rect x="38" y="150" width="124" height="34" rx="6" fill="#111827" stroke="url(#gold)" stroke-width="2.5"/>
  <text x="100" y="173" text-anchor="middle" font-family="Inter, system-ui, sans-serif" font-size="15" font-weight="800" letter-spacing="2.5" fill="url(#chrome)">DRAFT DAY GM</text>
</svg>
